<?xml version="1.0" encoding="UTF-8" standalone="no"?>
<!DOCTYPE svg PUBLIC "-//W3C//DTD SVG 1.1//EN"
 "http://www.w3.org/Graphics/SVG/1.1/DTD/svg11.dtd">
<!-- Generated by graphviz version 13.1.0 (20250701.0955)
 -->
<!-- Title: dependency&#45;cruiser output Pages: 1 -->
<svg width="307pt" height="221pt"
 viewBox="0.00 0.00 307.00 221.00" xmlns="http://www.w3.org/2000/svg" xmlns:xlink="http://www.w3.org/1999/xlink">
<g id="graph0" class="graph" transform="scale(1 1) rotate(0) translate(4 217)">
<title>dependency&#45;cruiser output</title>
<polygon fill="white" stroke="none" points="-4,4 -4,-217 303.25,-217 303.25,4 -4,4"/>
<g id="clust1" class="cluster">
<title>cluster_js</title>
<path fill="#ffffff" stroke="black" stroke-width="2" d="M20,-8C20,-8 285.25,-8 285.25,-8 291.25,-8 297.25,-14 297.25,-20 297.25,-20 297.25,-193 297.25,-193 297.25,-199 291.25,-205 285.25,-205 285.25,-205 20,-205 20,-205 14,-205 8,-199 8,-193 8,-193 8,-20 8,-20 8,-14 14,-8 20,-8"/>
<text xml:space="preserve" text-anchor="middle" x="152.62" y="-192.45" font-family="Helvetica,sans-Serif" font-weight="bold" font-size="9.00">js</text>
</g>
<g id="clust2" class="cluster">
<title>cluster_js/Controller</title>
<path fill="#ffffff" stroke="black" stroke-width="2" d="M28,-19C28,-19 100.5,-19 100.5,-19 106.5,-19 112.5,-25 112.5,-31 112.5,-31 112.5,-122 112.5,-122 112.5,-128 106.5,-134 100.5,-134 100.5,-134 28,-134 28,-134 22,-134 16,-128 16,-122 16,-122 16,-31 16,-31 16,-25 22,-19 28,-19"/>
<text xml:space="preserve" text-anchor="middle" x="64.25" y="-121.45" font-family="Helvetica,sans-Serif" font-weight="bold" font-size="9.00">Controller</text>
</g>
<g id="clust3" class="cluster">
<title>cluster_js/DesignPatterns</title>
<path fill="#ffffff" stroke="black" stroke-width="2" d="M218.5,-26C218.5,-26 277.25,-26 277.25,-26 283.25,-26 289.25,-32 289.25,-38 289.25,-38 289.25,-129 289.25,-129 289.25,-135 283.25,-141 277.25,-141 277.25,-141 218.5,-141 218.5,-141 212.5,-141 206.5,-135 206.5,-129 206.5,-129 206.5,-38 206.5,-38 206.5,-32 212.5,-26 218.5,-26"/>
<text xml:space="preserve" text-anchor="middle" x="247.88" y="-128.45" font-family="Helvetica,sans-Serif" font-weight="bold" font-size="9.00">DesignPatterns</text>
</g>
<g id="clust4" class="cluster">
<title>cluster_js/Model</title>
<path fill="#ffffff" stroke="black" stroke-width="2" d="M132.5,-125C132.5,-125 178.5,-125 178.5,-125 184.5,-125 190.5,-131 190.5,-137 190.5,-137 190.5,-166 190.5,-166 190.5,-172 184.5,-178 178.5,-178 178.5,-178 132.5,-178 132.5,-178 126.5,-178 120.5,-172 120.5,-166 120.5,-166 120.5,-137 120.5,-137 120.5,-131 126.5,-125 132.5,-125"/>
<text xml:space="preserve" text-anchor="middle" x="155.5" y="-165.45" font-family="Helvetica,sans-Serif" font-weight="bold" font-size="9.00">Model</text>
</g>
<g id="clust5" class="cluster">
<title>cluster_js/View</title>
<path fill="#ffffff" stroke="black" stroke-width="2" d="M132.5,-54C132.5,-54 178.5,-54 178.5,-54 184.5,-54 190.5,-60 190.5,-66 190.5,-66 190.5,-95 190.5,-95 190.5,-101 184.5,-107 178.5,-107 178.5,-107 132.5,-107 132.5,-107 126.5,-107 120.5,-101 120.5,-95 120.5,-95 120.5,-66 120.5,-66 120.5,-60 126.5,-54 132.5,-54"/>
<text xml:space="preserve" text-anchor="middle" x="155.5" y="-94.45" font-family="Helvetica,sans-Serif" font-weight="bold" font-size="9.00">View</text>
</g>
<!-- js/Controller/carrinhoPage.js -->
<g id="node1" class="node">
<title>js/Controller/carrinhoPage.js</title>
<g id="a_node1"><a xlink:href="js/Controller/carrinhoPage.js" xlink:title="no&#45;orphans">
<path fill="#ccffcc" stroke="orange" d="M98.33,-45.25C98.33,-45.25 30.17,-45.25 30.17,-45.25 27.08,-45.25 24,-42.17 24,-39.08 24,-39.08 24,-32.92 24,-32.92 24,-29.83 27.08,-26.75 30.17,-26.75 30.17,-26.75 98.33,-26.75 98.33,-26.75 101.42,-26.75 104.5,-29.83 104.5,-32.92 104.5,-32.92 104.5,-39.08 104.5,-39.08 104.5,-42.17 101.42,-45.25 98.33,-45.25"/>
<text xml:space="preserve" text-anchor="start" x="32" y="-32.7" font-family="Helvetica,sans-Serif" font-size="9.00" fill="orange">carrinhoPage.js</text>
</a>
</g>
</g>
<!-- js/Controller/main.js -->
<g id="node2" class="node">
<title>js/Controller/main.js</title>
<g id="a_node2"><a xlink:href="js/Controller/main.js" xlink:title="main.js">
<path fill="#ffffcc" stroke="black" d="M85.08,-76.25C85.08,-76.25 43.42,-76.25 43.42,-76.25 40.33,-76.25 37.25,-73.17 37.25,-70.08 37.25,-70.08 37.25,-63.92 37.25,-63.92 37.25,-60.83 40.33,-57.75 43.42,-57.75 43.42,-57.75 85.08,-57.75 85.08,-57.75 88.17,-57.75 91.25,-60.83 91.25,-63.92 91.25,-63.92 91.25,-70.08 91.25,-70.08 91.25,-73.17 88.17,-76.25 85.08,-76.25"/>
<text xml:space="preserve" text-anchor="start" x="49.62" y="-63.7" font-family="Helvetica,sans-Serif" font-size="9.00">main.js</text>
</a>
</g>
</g>
<!-- js/DesignPatterns/cart.js -->
<g id="node3" class="node">
<title>js/DesignPatterns/cart.js</title>
<g id="a_node3"><a xlink:href="js/DesignPatterns/cart.js" xlink:title="cart.js">
<path fill="#ffffcc" stroke="black" d="M268.21,-114.25C268.21,-114.25 226.54,-114.25 226.54,-114.25 223.46,-114.25 220.38,-111.17 220.38,-108.08 220.38,-108.08 220.38,-101.92 220.38,-101.92 220.38,-98.83 223.46,-95.75 226.54,-95.75 226.54,-95.75 268.21,-95.75 268.21,-95.75 271.29,-95.75 274.38,-98.83 274.38,-101.92 274.38,-101.92 274.38,-108.08 274.38,-108.08 274.38,-111.17 271.29,-114.25 268.21,-114.25"/>
<text xml:space="preserve" text-anchor="start" x="235.38" y="-101.7" font-family="Helvetica,sans-Serif" font-size="9.00">cart.js</text>
</a>
</g>
</g>
<!-- js/Controller/main.js&#45;&gt;js/DesignPatterns/cart.js -->
<g id="edge1" class="edge">
<title>js/Controller/main.js&#45;&gt;js/DesignPatterns/cart.js</title>
<path fill="none" stroke="#000000" stroke-width="2" stroke-opacity="0.200000" d="M91.62,-57.73C100.65,-54.99 110.91,-52.36 120.5,-51 151.3,-46.63 164.58,-33.79 190.5,-51 205.77,-61.14 193.43,-76.15 206.5,-89 208.3,-90.77 210.31,-92.34 212.46,-93.75"/>
<polygon fill="#000000" fill-opacity="0.200000" stroke="#000000" stroke-width="2" stroke-opacity="0.200000" points="211.19,-95.45 217.46,-96.47 213.2,-91.76 211.19,-95.45"/>
</g>
<!-- js/DesignPatterns/product.js -->
<g id="node4" class="node">
<title>js/DesignPatterns/product.js</title>
<g id="a_node4"><a xlink:href="js/DesignPatterns/product.js" xlink:title="product.js">
<path fill="#ffffcc" stroke="black" d="M269.08,-83.25C269.08,-83.25 225.67,-83.25 225.67,-83.25 222.58,-83.25 219.5,-80.17 219.5,-77.08 219.5,-77.08 219.5,-70.92 219.5,-70.92 219.5,-67.83 222.58,-64.75 225.67,-64.75 225.67,-64.75 269.08,-64.75 269.08,-64.75 272.17,-64.75 275.25,-67.83 275.25,-70.92 275.25,-70.92 275.25,-77.08 275.25,-77.08 275.25,-80.17 272.17,-83.25 269.08,-83.25"/>
<text xml:space="preserve" text-anchor="start" x="227.5" y="-70.7" font-family="Helvetica,sans-Serif" font-size="9.00">product.js</text>
</a>
</g>
</g>
<!-- js/Controller/main.js&#45;&gt;js/DesignPatterns/product.js -->
<g id="edge2" class="edge">
<title>js/Controller/main.js&#45;&gt;js/DesignPatterns/product.js</title>
<path fill="none" stroke="#000000" stroke-width="2" stroke-opacity="0.200000" d="M91.53,-61.02C98.73,-58.63 106.26,-55.37 112.5,-51 117.16,-47.73 115.37,-43.47 120.5,-41 148.54,-27.52 161.94,-28.66 190.5,-41 200.02,-45.12 197.93,-52.15 206.5,-58 208.1,-59.09 209.79,-60.13 211.53,-61.11"/>
<polygon fill="#000000" fill-opacity="0.200000" stroke="#000000" stroke-width="2" stroke-opacity="0.200000" points="210.37,-62.88 216.68,-63.68 212.25,-59.12 210.37,-62.88"/>
</g>
<!-- js/DesignPatterns/sort.js -->
<g id="node5" class="node">
<title>js/DesignPatterns/sort.js</title>
<g id="a_node5"><a xlink:href="js/DesignPatterns/sort.js" xlink:title="sort.js">
<path fill="#ffffcc" stroke="black" d="M268.21,-52.25C268.21,-52.25 226.54,-52.25 226.54,-52.25 223.46,-52.25 220.38,-49.17 220.38,-46.08 220.38,-46.08 220.38,-39.92 220.38,-39.92 220.38,-36.83 223.46,-33.75 226.54,-33.75 226.54,-33.75 268.21,-33.75 268.21,-33.75 271.29,-33.75 274.38,-36.83 274.38,-39.92 274.38,-39.92 274.38,-46.08 274.38,-46.08 274.38,-49.17 271.29,-52.25 268.21,-52.25"/>
<text xml:space="preserve" text-anchor="start" x="235.38" y="-39.7" font-family="Helvetica,sans-Serif" font-size="9.00">sort.js</text>
</a>
</g>
</g>
<!-- js/Controller/main.js&#45;&gt;js/DesignPatterns/sort.js -->
<g id="edge3" class="edge">
<title>js/Controller/main.js&#45;&gt;js/DesignPatterns/sort.js</title>
<path fill="none" stroke="#000000" stroke-width="2" stroke-opacity="0.200000" d="M91.61,-62.62C99.15,-60.26 106.84,-56.61 112.5,-51 120.18,-43.38 111.68,-34.27 120.5,-28 149.43,-7.43 191.88,-18.74 219.33,-29.92"/>
<polygon fill="#000000" fill-opacity="0.200000" stroke="#000000" stroke-width="2" stroke-opacity="0.200000" points="218.21,-31.72 224.55,-32.16 219.86,-27.86 218.21,-31.72"/>
</g>
<!-- js/View/view.js -->
<g id="node6" class="node">
<title>js/View/view.js</title>
<g id="a_node6"><a xlink:href="js/View/view.js" xlink:title="view.js">
<path fill="#ffffcc" stroke="black" d="M176.33,-80.25C176.33,-80.25 134.67,-80.25 134.67,-80.25 131.58,-80.25 128.5,-77.17 128.5,-74.08 128.5,-74.08 128.5,-67.92 128.5,-67.92 128.5,-64.83 131.58,-61.75 134.67,-61.75 134.67,-61.75 176.33,-61.75 176.33,-61.75 179.42,-61.75 182.5,-64.83 182.5,-67.92 182.5,-67.92 182.5,-74.08 182.5,-74.08 182.5,-77.17 179.42,-80.25 176.33,-80.25"/>
<text xml:space="preserve" text-anchor="start" x="142" y="-67.7" font-family="Helvetica,sans-Serif" font-size="9.00">view.js</text>
</a>
</g>
</g>
<!-- js/Controller/main.js&#45;&gt;js/View/view.js -->
<g id="edge4" class="edge">
<title>js/Controller/main.js&#45;&gt;js/View/view.js</title>
<path fill="none" stroke="#000000" stroke-width="2" stroke-opacity="0.200000" d="M91.55,-68.18C100.18,-68.57 109.93,-69 119.13,-69.41"/>
<polygon fill="#000000" fill-opacity="0.200000" stroke="#000000" stroke-width="2" stroke-opacity="0.200000" points="118.97,-71.51 125.06,-69.68 119.16,-67.31 118.97,-71.51"/>
</g>
<!-- js/Controller/produtoPage.js -->
<g id="node7" class="node">
<title>js/Controller/produtoPage.js</title>
<g id="a_node7"><a xlink:href="js/Controller/produtoPage.js" xlink:title="produtoPage.js">
<path fill="#ffffcc" stroke="black" d="M97.21,-107.25C97.21,-107.25 31.29,-107.25 31.29,-107.25 28.21,-107.25 25.12,-104.17 25.12,-101.08 25.12,-101.08 25.12,-94.92 25.12,-94.92 25.12,-91.83 28.21,-88.75 31.29,-88.75 31.29,-88.75 97.21,-88.75 97.21,-88.75 100.29,-88.75 103.38,-91.83 103.38,-94.92 103.38,-94.92 103.38,-101.08 103.38,-101.08 103.38,-104.17 100.29,-107.25 97.21,-107.25"/>
<text xml:space="preserve" text-anchor="start" x="33.12" y="-94.7" font-family="Helvetica,sans-Serif" font-size="9.00">produtoPage.js</text>
</a>
</g>
</g>
<!-- js/Controller/produtoPage.js&#45;&gt;js/DesignPatterns/cart.js -->
<g id="edge5" class="edge">
<title>js/Controller/produtoPage.js&#45;&gt;js/DesignPatterns/cart.js</title>
<path fill="none" stroke="#000000" stroke-width="2" stroke-opacity="0.200000" d="M103.72,-107.45C109.32,-108.51 115.03,-109.41 120.5,-110 151.1,-113.28 186.09,-111.45 211.4,-109.13"/>
<polygon fill="#000000" fill-opacity="0.200000" stroke="#000000" stroke-width="2" stroke-opacity="0.200000" points="211.48,-111.23 217.25,-108.55 211.07,-107.05 211.48,-111.23"/>
</g>
<!-- js/Model/model.js -->
<g id="node8" class="node">
<title>js/Model/model.js</title>
<g id="a_node8"><a xlink:href="js/Model/model.js" xlink:title="model.js">
<path fill="#ffffcc" stroke="black" d="M176.33,-151.25C176.33,-151.25 134.67,-151.25 134.67,-151.25 131.58,-151.25 128.5,-148.17 128.5,-145.08 128.5,-145.08 128.5,-138.92 128.5,-138.92 128.5,-135.83 131.58,-132.75 134.67,-132.75 134.67,-132.75 176.33,-132.75 176.33,-132.75 179.42,-132.75 182.5,-135.83 182.5,-138.92 182.5,-138.92 182.5,-145.08 182.5,-145.08 182.5,-148.17 179.42,-151.25 176.33,-151.25"/>
<text xml:space="preserve" text-anchor="start" x="138.25" y="-138.7" font-family="Helvetica,sans-Serif" font-size="9.00">model.js</text>
</a>
</g>
</g>
<!-- js/Controller/produtoPage.js&#45;&gt;js/Model/model.js -->
<g id="edge6" class="edge">
<title>js/Controller/produtoPage.js&#45;&gt;js/Model/model.js</title>
<path fill="none" stroke="#000000" stroke-width="2" stroke-opacity="0.200000" d="M84.62,-107.55C97.04,-113.67 113.37,-121.72 127.12,-128.5"/>
<polygon fill="#000000" fill-opacity="0.200000" stroke="#000000" stroke-width="2" stroke-opacity="0.200000" points="125.84,-130.21 132.15,-130.98 127.7,-126.44 125.84,-130.21"/>
</g>
<!-- js/Model/model.js&#45;&gt;js/DesignPatterns/cart.js -->
<g id="edge7" class="edge">
<title>js/Model/model.js&#45;&gt;js/DesignPatterns/cart.js</title>
<path fill="none" stroke="#000000" stroke-width="2" stroke-opacity="0.200000" d="M180.11,-132.28C190.74,-127.9 203.45,-122.67 214.87,-117.97"/>
<polygon fill="#000000" fill-opacity="0.200000" stroke="#000000" stroke-width="2" stroke-opacity="0.200000" points="215.37,-120.03 220.12,-115.81 213.77,-116.15 215.37,-120.03"/>
</g>
<!-- js/Model/model.js&#45;&gt;js/DesignPatterns/product.js -->
<g id="edge8" class="edge">
<title>js/Model/model.js&#45;&gt;js/DesignPatterns/product.js</title>
<path fill="none" stroke="#000000" stroke-width="2" stroke-opacity="0.200000" d="M167.6,-132.28C174.43,-126.13 183.24,-117.86 190.5,-110 198.22,-101.63 197.36,-96.79 206.5,-90 208.06,-88.84 209.71,-87.76 211.42,-86.74"/>
<polygon fill="#000000" fill-opacity="0.200000" stroke="#000000" stroke-width="2" stroke-opacity="0.200000" points="212.16,-88.72 216.51,-84.09 210.22,-85 212.16,-88.72"/>
</g>
</g>
</svg>
